<svg width="73" height="56" viewBox="0 0 73 56" fill="none" xmlns="http://www.w3.org/2000/svg">
<path d="M34.6627 11.304L22.7107 45H12.4387L0.486688 11.304H9.22269L17.5747 36.744L25.9747 11.304H34.6627Z" fill="#71A7F2"/>
<path d="M62.0932 50.76L57.7732 44.952C56.4932 45.208 55.2452 45.336 54.0292 45.336C50.8612 45.336 47.9492 44.6 45.2932 43.128C42.6692 41.656 40.5732 39.608 39.0052 36.984C37.4692 34.328 36.7012 31.352 36.7012 28.056C36.7012 24.76 37.4692 21.8 39.0052 19.176C40.5732 16.552 42.6692 14.504 45.2932 13.032C47.9492 11.56 50.8612 10.824 54.0292 10.824C57.1972 10.824 60.0932 11.56 62.7172 13.032C65.3732 14.504 67.4532 16.552 68.9572 19.176C70.4932 21.8 71.2612 24.76 71.2612 28.056C71.2612 30.936 70.6692 33.576 69.4852 35.976C68.3332 38.344 66.7172 40.312 64.6372 41.88L72.0292 50.76H62.0932ZM45.1012 28.056C45.1012 31.032 45.9012 33.416 47.5012 35.208C49.1332 36.968 51.3092 37.848 54.0292 37.848C56.7172 37.848 58.8612 36.952 60.4612 35.16C62.0932 33.368 62.9092 31 62.9092 28.056C62.9092 25.08 62.0932 22.712 60.4612 20.952C58.8612 19.16 56.7172 18.264 54.0292 18.264C51.3092 18.264 49.1332 19.144 47.5012 20.904C45.9012 22.664 45.1012 25.048 45.1012 28.056Z" fill="#F9747F"/>
</svg>
