<svg width="100" height="62" viewBox="0 0 100 62" fill="none" xmlns="http://www.w3.org/2000/svg">
<rect x="1" y="1" width="98" height="60" rx="7" fill="white"/>
<path d="M70 31C70 19.9516 61.0484 11 50 11C38.9516 11 30 19.9516 30 31C30 40.9823 37.3137 49.2565 46.875 50.7581V36.7815H41.7944V31H46.875V26.5935C46.875 21.5815 49.8589 18.8129 54.429 18.8129C56.6177 18.8129 58.9064 19.2032 58.9064 19.2032V24.1226H56.3839C53.9 24.1226 53.125 25.6645 53.125 27.246V31H58.6718L57.7847 36.7815H53.125V50.7581C62.6863 49.2565 70 40.9823 70 31Z" fill="#8699DA"/>
<rect x="1" y="1" width="98" height="60" rx="7" stroke="#789ADE" stroke-width="2"/>
</svg>
