<svg width="101" height="63" viewBox="0 0 101 63" fill="none" xmlns="http://www.w3.org/2000/svg">
<rect x="1" y="1" width="99" height="61" rx="7" fill="white"/>
<g clip-path="url(#clip0_1017_5780)">
<path d="M39.9216 37.9635L38.5989 42.9014L33.7643 43.0037C32.3195 40.3239 31.5 37.2578 31.5 33.9996C31.5 30.849 32.2662 27.8779 33.6244 25.2617H33.6255L37.9296 26.0508L39.815 30.3291C39.4204 31.4795 39.2053 32.7145 39.2053 33.9996C39.2055 35.3944 39.4581 36.7307 39.9216 37.9635Z" fill="#FBBB00"/>
<path d="M69.1681 30.4502C69.3863 31.5995 69.5 32.7865 69.5 33.9996C69.5 35.3599 69.357 36.6868 69.0846 37.9667C68.1597 42.3221 65.7429 46.1252 62.3949 48.8165L62.3939 48.8155L56.9726 48.5389L56.2054 43.7492C58.4269 42.4463 60.163 40.4075 61.0775 37.9667H50.9177V30.4502H61.2258H69.1681Z" fill="#518EF8"/>
<path d="M62.3937 48.8158L62.3948 48.8168C59.1387 51.434 55.0025 52.9999 50.4999 52.9999C43.2643 52.9999 36.9734 48.9557 33.7643 43.0041L39.9215 37.9639C41.5261 42.2461 45.657 45.2945 50.4999 45.2945C52.5816 45.2945 54.5317 44.7318 56.2051 43.7494L62.3937 48.8158Z" fill="#28B446"/>
<path d="M62.6277 19.3742L56.4725 24.4133C54.7406 23.3308 52.6934 22.7054 50.5001 22.7054C45.5475 22.7054 41.3393 25.8936 39.8152 30.3294L33.6256 25.2621H33.6245C36.7867 19.1654 43.1569 15 50.5001 15C55.1102 15 59.3371 16.6422 62.6277 19.3742Z" fill="#F14336"/>
</g>
<rect x="1" y="1" width="99" height="61" rx="7" stroke="#789ADE" stroke-width="2"/>
<defs>
<clipPath id="clip0_1017_5780">
<rect width="38" height="38" fill="white" transform="translate(31.5 15)"/>
</clipPath>
</defs>
</svg>
