<svg width="152" height="96" viewBox="0 0 152 96" fill="none" xmlns="http://www.w3.org/2000/svg">
<rect width="152" height="96" rx="4" fill="#FFD9DC"/>
<g clip-path="url(#clip0_1521_6416)">
<path d="M91.7545 35.157C93.2578 39.7763 100.233 38.4551 100.233 42.8968C100.233 46.954 87.7179 49.4699 83.6516 49.6791L66.6997 49.994C55.8392 49.994 47.9702 47.0327 47.9702 38.1329C47.9702 29.233 55.998 19.5957 67.4774 19.5957C78.3191 19.5957 88.9882 26.6586 91.7545 35.157Z" fill="#D87E35"/>
<path d="M96.0494 38.883C95.3211 38.5781 94.4742 38.7369 93.9212 39.3004C91.0016 42.2741 81.6357 44.0749 78.2222 44.2507L61.2703 44.5657C56.3099 44.5657 51.9744 43.9477 48.7271 42.4284C50.9413 48.0149 57.8201 49.9952 66.6998 49.9952L83.6517 49.6803C87.7181 49.4706 100.233 46.9552 100.233 42.898C100.233 40.4838 98.172 39.7715 96.0494 38.883Z" fill="#C67030"/>
<path d="M96.8119 20.1269C96.2118 20.9422 96.3285 21.9291 96.5299 22.6108C96.6842 23.1321 96.4961 23.6938 96.0561 24.0138L88.5264 29.4694C87.6099 30.1337 87.409 31.4172 88.0791 32.33C88.7488 33.2423 90.0338 33.4351 90.9425 32.7594L98.4027 27.2095C98.8398 26.8858 99.4317 26.8744 99.8831 27.1774C100.473 27.5738 101.38 27.9808 102.337 27.6526C103.592 27.2227 104.121 25.8307 103.592 24.6144C103.178 23.6586 102.286 23.1454 101.379 23.1454C101.184 23.1454 101.018 23.0479 100.915 22.9051C100.81 22.7641 100.767 22.5764 100.825 22.3906C101.097 21.5254 100.874 20.5211 100.086 19.839C99.0838 18.9711 97.5974 19.0585 96.8119 20.1269Z" fill="#E2E2E2"/>
<path d="M69.1548 46.2237C72.28 50.48 78.4658 51.2486 82.972 47.9399C85.0919 46.3835 86.3791 44.2627 87.188 41.7413C88.2624 38.3923 89.8362 35.6928 92.4628 33.2827C93.1275 32.6725 93.2511 31.6961 92.7467 31.0085L90.7371 28.2715C90.2322 27.5844 89.2635 27.4096 88.4826 27.8609C85.3959 29.6458 82.349 30.3388 78.832 30.3608C76.1847 30.3773 73.7755 30.9705 71.6551 32.5269C67.1494 35.8352 66.0297 41.9674 69.1548 46.2237Z" fill="#E88C38"/>
<path d="M92.7468 31.0085L90.7367 28.2715C90.5747 28.0504 90.2657 27.9391 89.9187 27.8915C88.9894 27.7638 88.0666 28.1465 87.4486 28.8519C85.3456 31.2547 83.3109 34.4069 82.4713 37.0249C81.6625 39.5458 80.3752 41.667 78.2549 43.2234C75.1659 45.4917 71.2877 45.8428 68.147 44.4686C68.412 45.0783 68.7462 45.6675 69.155 46.2236C72.2797 50.4799 78.4659 51.2485 82.9717 47.9398C85.092 46.3834 86.3793 44.2626 87.1881 41.7412C88.2621 38.3922 89.8359 35.6928 92.463 33.2826C93.1276 32.6724 93.2512 31.696 92.7468 31.0085Z" fill="#D38231"/>
<path d="M103.374 49.3203H48.3914C47.4914 49.3203 46.7617 50.05 46.7617 50.95C46.7617 51.8504 47.4914 52.5801 48.3914 52.5801H51.5783C51.9844 52.5801 52.3506 52.8259 52.5039 53.2017L53.0619 54.5677C53.5838 55.8448 54.8262 56.6793 56.2059 56.6793H95.5599C96.9396 56.6793 98.182 55.8448 98.7038 54.5677L99.2614 53.2017C99.4152 52.8259 99.7809 52.5801 100.187 52.5801H103.374C104.274 52.5801 105.004 51.8504 105.004 50.95C105.004 50.05 104.274 49.3203 103.374 49.3203Z" fill="#E2E2E2"/>
<path d="M103.374 49.3203H98.3052C98.3052 51.1207 96.8458 52.5801 95.0455 52.5801H95.0061C93.6822 52.5801 92.4893 53.3811 91.9885 54.607L91.5907 55.5812C91.3192 56.2454 90.6733 56.6793 89.9556 56.6793H95.56C96.9397 56.6793 98.1821 55.8448 98.7039 54.5677L99.2615 53.2017C99.4153 52.8259 99.781 52.5801 100.188 52.5801H103.374C104.274 52.5801 105.004 51.8504 105.004 50.95C105.004 50.05 104.274 49.3203 103.374 49.3203Z" fill="#D8D6D4"/>
<path d="M103.374 48.4418H94.1266C94.6824 48.2568 95.2372 48.0563 95.7782 47.8398C99.3172 46.4253 101.112 44.7627 101.112 42.8978C101.112 40.0313 98.7894 39.0681 96.7405 38.219C95.8625 37.8551 94.9552 37.4783 94.2118 36.967C93.8117 36.6923 93.2642 36.7935 92.9895 37.1931C92.7144 37.5932 92.8156 38.1402 93.2157 38.4154C94.1111 39.0315 95.1058 39.444 96.0671 39.8427C98.1664 40.7129 99.3538 41.2837 99.3538 42.8978C99.3538 43.9273 97.813 45.1335 95.1259 46.2079C91.9065 47.4947 88.1702 48.1918 86.6408 48.4418H83.7624C85.734 46.9041 87.1311 44.798 88.0251 42.0102C89.1136 38.6172 90.6655 36.1252 93.0577 33.9302C93.7215 33.3209 94.0168 32.4608 93.9133 31.6446L98.9258 27.9156C99.0622 27.8144 99.2499 27.8108 99.3932 27.9069C100.479 28.6361 101.596 28.8357 102.623 28.4837C103.433 28.2063 104.067 27.6258 104.41 26.849C104.766 26.0424 104.762 25.1004 104.399 24.264C103.923 23.1681 102.911 22.4224 101.756 22.2883C101.974 21.1462 101.565 19.9565 100.662 19.1746C99.9727 18.5781 99.0751 18.292 98.1984 18.39C97.3552 18.4843 96.6114 18.9164 96.1037 19.6058C95.4605 20.4801 95.3164 21.6053 95.6871 22.8596C95.7361 23.0249 95.6766 23.2029 95.5407 23.3018L90.4801 26.9685C89.7321 26.6256 88.823 26.6494 88.0429 27.1003C85.2323 28.7254 82.39 29.4597 78.8268 29.4821C75.7666 29.5013 73.2507 30.2653 71.1354 31.819C68.7742 33.5521 67.1918 36.0538 66.6791 38.8621C66.1632 41.6897 66.7908 44.489 68.4465 46.7439C68.9084 47.3729 69.4412 47.941 70.0317 48.4418H58.8993C52.1363 47.0795 48.8487 43.7071 48.8487 38.1338C48.8487 33.8936 50.7434 29.5228 54.0475 26.1422C57.6185 22.4879 62.3884 20.4756 67.4774 20.4756C73.3075 20.4756 79.3683 22.6023 84.1062 26.3107C84.4884 26.6101 85.0409 26.5423 85.3398 26.1601C85.6392 25.7779 85.5719 25.2258 85.1897 24.9264C80.1488 20.9809 73.6929 18.7177 67.4774 18.7177C61.911 18.7177 56.6952 20.9182 52.7905 24.9136C49.1682 28.6197 47.0909 33.4385 47.0909 38.1338C47.0909 42.8941 49.1934 46.3438 53.3494 48.4418H48.3914C47.008 48.4418 45.8828 49.567 45.8828 50.9503C45.8828 52.3337 47.008 53.4593 48.3914 53.4593H51.5783C51.6278 53.4593 51.6717 53.4886 51.6905 53.5344L52.2485 54.9004C52.9081 56.5154 54.4613 57.5586 56.2059 57.5586H95.5599C97.3044 57.5586 98.8576 56.5154 99.5173 54.9004L100.075 53.5349C100.094 53.4891 100.138 53.4593 100.187 53.4593H103.374C104.757 53.4593 105.883 52.3337 105.883 50.9503C105.883 49.5674 104.758 48.4418 103.374 48.4418ZM96.5734 24.7241C97.3104 24.1876 97.6317 23.2382 97.3726 22.3611C97.2271 21.8685 97.1341 21.1709 97.5196 20.6472C97.7929 20.2755 98.1458 20.1647 98.3939 20.1368C98.7853 20.0933 99.1918 20.227 99.5113 20.5035C100.082 20.9979 100.131 21.6662 99.9865 22.1267C99.8482 22.5671 99.9306 23.0519 100.207 23.4254C100.48 23.8003 100.918 24.0237 101.379 24.0237H101.379C101.862 24.0237 102.485 24.2709 102.786 24.9639C102.954 25.3512 102.96 25.7801 102.801 26.1395C102.701 26.3675 102.489 26.6709 102.052 26.8206C101.438 27.0312 100.799 26.7341 100.373 26.4476C99.6143 25.9381 98.6123 25.96 97.878 26.5039L93.1255 30.0392L91.7751 28.2003L96.5734 24.7241ZM69.8637 45.7039C68.4968 43.8422 67.98 41.5245 68.4085 39.178C68.8402 36.8127 70.1782 34.702 72.1754 33.2358C73.9818 31.9092 76.1612 31.2564 78.8377 31.2399C82.7233 31.2152 85.8333 30.4081 88.9228 28.6219C89.2629 28.4256 89.6648 28.4544 89.9207 28.6755C89.9243 28.6787 89.928 28.6815 89.9317 28.6847C89.9669 28.7167 89.9999 28.7524 90.0287 28.7918L92.0383 31.5292C92.0662 31.5672 92.0914 31.6098 92.112 31.656C92.1129 31.6578 92.1138 31.6592 92.1147 31.6606C92.253 31.9723 92.1605 32.3678 91.8689 32.6352C89.24 35.0476 87.538 37.7736 86.3515 41.4732C85.5339 44.0221 84.2581 45.9058 82.4518 47.2319C81.778 47.7267 81.0433 48.1337 80.2673 48.4418H73.3629C71.9598 47.8586 70.7527 46.9147 69.8637 45.7039ZM103.374 51.7015H64.6264C64.1412 51.7015 63.7475 52.0947 63.7475 52.5804C63.7475 53.0657 64.1412 53.4593 64.6264 53.4593H98.2071L97.8904 54.2357C97.5017 55.1865 96.5871 55.8008 95.5599 55.8008H56.2059C55.1786 55.8008 54.264 55.1865 53.8754 54.2357L53.5586 53.4593H60.5372C61.0225 53.4593 61.4161 53.0657 61.4161 52.5804C61.4161 52.0947 61.0225 51.7015 60.5372 51.7015H48.3914C47.9771 51.7015 47.6406 51.3646 47.6406 50.9503C47.6406 50.5365 47.9771 50.1996 48.3914 50.1996H103.374C103.788 50.1996 104.125 50.5365 104.125 50.9503C104.125 51.3646 103.788 51.7015 103.374 51.7015Z" fill="black" fill-opacity="0.87"/>
</g>
<path d="M60.986 81.1468H57.318L56.73 82.8828H54.224L57.78 73.0548H60.552L64.108 82.8828H61.574L60.986 81.1468ZM60.37 79.2988L59.152 75.7008L57.948 79.2988H60.37ZM73.1703 75.0708L68.2703 86.5928H65.6943L67.4863 82.6168L64.3083 75.0708H66.9823L68.7883 79.9568L70.5803 75.0708H73.1703ZM73.56 78.9628C73.56 78.1601 73.7093 77.4555 74.008 76.8488C74.316 76.2421 74.7313 75.7755 75.254 75.4488C75.7766 75.1221 76.36 74.9588 77.004 74.9588C77.5546 74.9588 78.0353 75.0708 78.446 75.2948C78.866 75.5188 79.188 75.8128 79.412 76.1768V75.0708H81.806V82.8828H79.412V81.7768C79.1786 82.1408 78.852 82.4348 78.432 82.6588C78.0213 82.8828 77.5406 82.9948 76.99 82.9948C76.3553 82.9948 75.7766 82.8315 75.254 82.5048C74.7313 82.1688 74.316 81.6975 74.008 81.0908C73.7093 80.4748 73.56 79.7655 73.56 78.9628ZM79.412 78.9768C79.412 78.3795 79.244 77.9081 78.908 77.5628C78.5813 77.2175 78.18 77.0448 77.704 77.0448C77.228 77.0448 76.822 77.2175 76.486 77.5628C76.1593 77.8988 75.996 78.3655 75.996 78.9628C75.996 79.5601 76.1593 80.0361 76.486 80.3908C76.822 80.7361 77.228 80.9088 77.704 80.9088C78.18 80.9088 78.5813 80.7361 78.908 80.3908C79.244 80.0455 79.412 79.5741 79.412 78.9768ZM93.5059 74.9868C94.4766 74.9868 95.2466 75.2808 95.8159 75.8688C96.3946 76.4568 96.6839 77.2735 96.6839 78.3188V82.8828H94.3039V78.6408C94.3039 78.1368 94.1686 77.7495 93.8979 77.4788C93.6366 77.1988 93.2726 77.0588 92.8059 77.0588C92.3393 77.0588 91.9706 77.1988 91.6999 77.4788C91.4386 77.7495 91.3079 78.1368 91.3079 78.6408V82.8828H88.9279V78.6408C88.9279 78.1368 88.7926 77.7495 88.5219 77.4788C88.2606 77.1988 87.8966 77.0588 87.4299 77.0588C86.9633 77.0588 86.5946 77.1988 86.3239 77.4788C86.0626 77.7495 85.9319 78.1368 85.9319 78.6408V82.8828H83.5379V75.0708H85.9319V76.0508C86.1746 75.7241 86.4919 75.4675 86.8839 75.2808C87.2759 75.0848 87.7193 74.9868 88.2139 74.9868C88.8019 74.9868 89.3246 75.1128 89.7819 75.3648C90.2486 75.6168 90.6126 75.9761 90.8739 76.4428C91.1446 76.0135 91.5133 75.6635 91.9799 75.3928C92.4466 75.1221 92.9553 74.9868 93.5059 74.9868Z" fill="black" fill-opacity="0.87"/>
<defs>
<clipPath id="clip0_1521_6416">
<rect width="60" height="59.8829" fill="white" transform="translate(46 8)"/>
</clipPath>
</defs>
</svg>
