<svg width="156" height="169" viewBox="0 0 156 169" fill="none" xmlns="http://www.w3.org/2000/svg">
<rect y="0.5" width="156" height="168" rx="8" fill="#F5F9FF"/>
<path d="M62.3655 63.275C62.5139 62.8022 62.9861 62.5093 63.4755 62.5866C70.0276 63.6202 73.5049 66.4135 75.0315 69.6998C76.5287 72.9225 76.0351 76.3812 75.1456 78.5809C74.9471 79.0719 74.4003 79.323 73.8986 79.1535L67.0669 76.8464C63.7506 75.7264 62.2998 73.0895 61.8283 70.4217C61.3637 67.7936 61.8152 65.0295 62.3655 63.275Z" fill="#D93300" stroke="#172D39" stroke-width="2" stroke-linejoin="round"/>
<path d="M80.6949 75.4258C80.8435 75.8985 81.316 76.1915 81.8056 76.1145C88.3593 75.084 91.8365 72.2932 93.3623 69.0086C94.8586 65.7876 94.3633 62.3298 93.4726 60.1304C93.2738 59.6395 92.7267 59.3883 92.2249 59.5575L85.3919 61.8609C82.0751 62.9791 80.6249 65.6145 80.1544 68.2812C79.6908 70.9082 80.1436 73.6717 80.6949 75.4258Z" fill="#D93300" stroke="#172D39" stroke-width="2" stroke-linejoin="round"/>
<path d="M77.2854 108.5V85.5596C77.2854 82.8554 72.6846 74.3523 70.0132 70.7227" stroke="#172D39" stroke-width="2" stroke-linecap="round" stroke-linejoin="round"/>
<path d="M77.2854 108.5V85.5596C77.2854 82.8554 81.8862 74.3523 84.5576 70.7227" stroke="#172D39" stroke-width="2" stroke-linecap="round" stroke-linejoin="round"/>
<mask id="path-6-outside-1_1058_6614" maskUnits="userSpaceOnUse" x="65.3418" y="99.7402" width="24" height="11" fill="black">
<rect fill="white" x="65.3418" y="99.7402" width="24" height="11"/>
<path fill-rule="evenodd" clip-rule="evenodd" d="M87.229 108.5H67.3425C67.342 108.476 67.3418 108.452 67.3418 108.429C67.3418 106.464 68.9375 104.871 70.9058 104.871C71.4263 104.871 71.9208 104.982 72.3665 105.183C73.2403 103.158 75.2574 101.74 77.6062 101.74C79.8752 101.74 81.8347 103.063 82.7529 104.978C83.0335 104.908 83.3271 104.871 83.6294 104.871C85.6175 104.871 87.2291 106.48 87.2291 108.464C87.2291 108.476 87.2291 108.488 87.229 108.5Z"/>
</mask>
<path fill-rule="evenodd" clip-rule="evenodd" d="M87.229 108.5H67.3425C67.342 108.476 67.3418 108.452 67.3418 108.429C67.3418 106.464 68.9375 104.871 70.9058 104.871C71.4263 104.871 71.9208 104.982 72.3665 105.183C73.2403 103.158 75.2574 101.74 77.6062 101.74C79.8752 101.74 81.8347 103.063 82.7529 104.978C83.0335 104.908 83.3271 104.871 83.6294 104.871C85.6175 104.871 87.2291 106.48 87.2291 108.464C87.2291 108.476 87.2291 108.488 87.229 108.5Z" fill="#FD8966"/>
<path d="M67.3425 108.5L65.3429 108.539C65.3643 109.628 66.2532 110.5 67.3425 110.5V108.5ZM87.229 108.5V110.5C88.326 110.5 89.2183 109.616 89.2289 108.519L87.229 108.5ZM72.3665 105.183L71.5472 107.007C72.0357 107.226 72.5918 107.241 73.091 107.047C73.5902 106.853 73.9907 106.467 74.2028 105.975L72.3665 105.183ZM82.7529 104.978L80.9495 105.843C81.36 106.699 82.3162 107.149 83.2375 106.919L82.7529 104.978ZM67.3425 110.5H87.229V106.5H67.3425V110.5ZM69.3421 108.461C69.3419 108.45 69.3418 108.439 69.3418 108.429H65.3418C65.3418 108.466 65.3422 108.502 65.3429 108.539L69.3421 108.461ZM69.3418 108.429C69.3418 107.572 70.0387 106.871 70.9058 106.871V102.871C67.8363 102.871 65.3418 105.356 65.3418 108.429H69.3418ZM70.9058 106.871C71.1385 106.871 71.3541 106.92 71.5472 107.007L73.1858 103.358C72.4874 103.044 71.7142 102.871 70.9058 102.871V106.871ZM74.2028 105.975C74.771 104.658 76.0822 103.74 77.6062 103.74V99.7402C74.4326 99.7402 71.7096 101.657 70.5302 104.39L74.2028 105.975ZM77.6062 103.74C79.0784 103.74 80.3519 104.597 80.9495 105.843L84.5563 104.114C83.3174 101.53 80.672 99.7402 77.6062 99.7402V103.74ZM83.2375 106.919C83.3609 106.888 83.4918 106.871 83.6294 106.871V102.871C83.1624 102.871 82.7061 102.929 82.2683 103.038L83.2375 106.919ZM83.6294 106.871C84.5163 106.871 85.2291 107.588 85.2291 108.464H89.2291C89.2291 105.372 86.7187 102.871 83.6294 102.871V106.871ZM85.2291 108.464C85.2291 108.469 85.2291 108.475 85.229 108.48L89.2289 108.519C89.229 108.501 89.2291 108.483 89.2291 108.464H85.2291Z" fill="#172D39" mask="url(#path-6-outside-1_1058_6614)"/>
</svg>
